HIERARCHY
ROOT Pelvis
{
	OFFSET 0.000000 0.000000 0.000000
	CHANNELS 6 Xposition Yposition Zposition Xrotation Yrotation Zrotation
	JOINT LeftUpLeg_virtual
	{
		OFFSET 0.000000 0.000000 0.000000
		CHANNELS 3 Xrotation Yrotation Zrotation
		JOINT LeftUpLeg
		{
			OFFSET 18.735201 -5.666702 -4.541200
			CHANNELS 3 Xrotation Yrotation Zrotation
			JOINT LeftLeg
			{
				OFFSET -0.021200 -31.938179 0.493100
				CHANNELS 3 Xrotation Yrotation Zrotation
				JOINT LeftFoot
				{
					OFFSET 0.021200 -31.938179 -4.336299
					CHANNELS 3 Xrotation Yrotation Zrotation
					JOINT LeftToeBase
					{
						OFFSET 0.943001 -26.722000 15.023500
						CHANNELS 3 Xrotation Yrotation Zrotation
						End Site
						{
							OFFSET 0 0 0
						}
					}
				}
			}
		}
	}
	JOINT RightUpLeg_virtual
	{
		OFFSET 0.000000 0.000000 0.000000
		CHANNELS 3 Xrotation Yrotation Zrotation
		JOINT RightUpLeg
		{
			OFFSET -18.735201 -5.666702 -4.541200
			CHANNELS 3 Xrotation Yrotation Zrotation
			JOINT RightLeg
			{
				OFFSET 0.018946 -31.938133 0.493100
				CHANNELS 3 Xrotation Yrotation Zrotation
				JOINT RightFoot
				{
					OFFSET -0.018946 -31.938126 -4.336299
					CHANNELS 3 Xrotation Yrotation Zrotation
					JOINT RightToeBase
					{
						OFFSET -0.943001 -26.722004 15.023500
						CHANNELS 3 Xrotation Yrotation Zrotation
						End Site
						{
							OFFSET 0 0 0
						}
					}
				}
			}
		}
	}
	JOINT Hips_virtual
	{
		OFFSET 0.000000 0.000000 0.000000
		CHANNELS 3 Xrotation Yrotation Zrotation
		JOINT Hips
		{
			OFFSET -0.000000 -0.000000 -0.000000
			CHANNELS 3 Xrotation Yrotation Zrotation
			JOINT Spine
			{
				OFFSET 0.000000 10.199997 -0.299500
				CHANNELS 3 Xrotation Yrotation Zrotation
				JOINT Spine1
				{
					OFFSET 0.000000 11.900002 -1.516600
					CHANNELS 3 Xrotation Yrotation Zrotation
					JOINT Spine2
					{
						OFFSET 0.000000 13.600006 -2.842500
						CHANNELS 3 Xrotation Yrotation Zrotation
						JOINT Neck_virtual
						{
							OFFSET 0.000000 0.000000 0.000000
							CHANNELS 3 Xrotation Yrotation Zrotation
							JOINT Neck
							{
								OFFSET 0.000000 9.624100 -2.890100
								CHANNELS 3 Xrotation Yrotation Zrotation
								JOINT Head
								{
									OFFSET 0.000000 14.068802 -1.351900
									CHANNELS 3 Xrotation Yrotation Zrotation
									End Site
									{
										OFFSET 0 0 0
									}
								}
							}
						}
						JOINT LeftShoulder_virtual
						{
							OFFSET 0.000000 0.000000 0.000000
							CHANNELS 3 Xrotation Yrotation Zrotation
							JOINT LeftShoulder
							{
								OFFSET 15.263000 10.923401 -0.547700
								CHANNELS 3 Xrotation Yrotation Zrotation
								JOINT LeftArm
								{
									OFFSET 25.438599 -2.830597 -13.032500
									CHANNELS 3 Xrotation Yrotation Zrotation
									JOINT LeftForeArm
									{
										OFFSET 29.960503 0.000000 0.000000
										CHANNELS 3 Xrotation Yrotation Zrotation
										JOINT LeftHand
										{
											OFFSET 27.849251 0.000000 0.000000
											CHANNELS 3 Xrotation Yrotation Zrotation
											End Site
											{
												OFFSET 0 0 0
											}
										}
									}
								}
							}
						}
						JOINT RightShoulder_virtual
						{
							OFFSET 0.000000 0.000000 0.000000
							CHANNELS 3 Xrotation Yrotation Zrotation
							JOINT RightShoulder
							{
								OFFSET -15.263000 10.923401 -0.547700
								CHANNELS 3 Xrotation Yrotation Zrotation
								JOINT RightArm
								{
									OFFSET -25.438599 -2.830597 -13.032500
									CHANNELS 3 Xrotation Yrotation Zrotation
									JOINT RightForeArm
									{
										OFFSET -29.960503 0.000000 0.000000
										CHANNELS 3 Xrotation Yrotation Zrotation
										JOINT RightHand
										{
											OFFSET -27.849251 0.000000 0.000000
											CHANNELS 3 Xrotation Yrotation Zrotation
											End Site
											{
												OFFSET 0 0 0
											}
										}
									}
								}
							}
						}
					}
				}
			}
		}
	}
}
MOTION
Frames: 11
Frame Time: 0.03333333
-1.790181 90.979889 3.443941 0.000000 0.000000 0.000000 1.512322 -26.725234 0.648449 -30.700911 24.378303 16.862108 32.589302 8.049881 11.580073 -5.204949 1.791313 -15.711518 0.000000 0.000000 0.000000 1.512322 -26.725234 0.648449 -19.621279 -15.776769 -11.230778 34.877856 -1.447412 -7.469997 -16.741094 -2.982559 13.425949 0.000000 0.000000 0.000000 1.512322 -26.725234 0.648449 0.000000 0.000002 0.000000 4.044053 -1.447772 0.759986 1.509778 -0.573494 0.095187 0.000000 0.000000 0.000000 1.512357 -0.565977 0.098705 -1.018962 1.698520 1.116206 0.000000 0.000000 0.000000 1.512357 -0.565977 0.098705 -0.278004 3.012246 5.812621 -51.694164 -1.278265 -53.239074 0.000994 -85.822051 0.000984 0.000000 0.000000 0.000000 1.512357 -0.565977 0.098705 -1.118784 -11.889978 10.257414 -58.214740 66.009339 74.019976 0.000056 83.646827 -0.000093 0.000000 0.000000 0.000000 
-1.793676 90.977043 3.449713 0.000000 0.000000 0.000000 1.528194 -26.724611 0.667125 -30.708531 24.404584 16.858234 32.583718 8.028598 11.578719 -5.207638 1.791691 -15.706800 0.000000 0.000000 0.000000 1.528194 -26.724611 0.667125 -19.661085 -15.853544 -11.243016 34.896451 -1.375891 -7.532602 -16.755791 -2.986010 13.434106 0.000000 0.000000 0.000000 1.528194 -26.724611 0.667125 0.000000 0.000000 0.000000 4.031108 -1.453867 0.764199 1.504780 -0.576876 0.097092 0.000000 0.000000 0.000000 1.507365 -0.569384 0.100618 -1.018382 1.699750 1.112823 0.000000 0.000000 0.000000 1.507365 -0.569384 0.100618 -0.279651 3.035680 5.768247 -51.680906 -1.342407 -53.222886 -0.000590 -85.775893 -0.000519 0.000000 0.000000 0.000000 1.507365 -0.569384 0.100618 -1.120086 -11.901483 10.263997 -58.262183 66.059513 74.030037 -0.000341 83.625537 0.000308 0.000000 0.000000 0.000000 
-1.796642 90.973549 3.455881 0.000000 0.000000 0.000000 1.544879 -26.720629 0.682717 -30.727426 24.435374 16.862569 32.587819 7.996190 11.577479 -5.214641 1.792245 -15.698819 0.000000 0.000000 0.000000 1.544879 -26.720629 0.682717 -19.698448 -15.936387 -11.252215 34.911948 -1.306672 -7.596215 -16.769861 -2.989459 13.443365 0.000000 0.000000 0.000000 1.544879 -26.720629 0.682717 0.000000 0.000000 0.000000 4.018637 -1.460562 0.768217 1.499959 -0.580352 0.099079 0.000000 0.000000 0.000000 1.502556 -0.572886 0.102615 -1.017125 1.700800 1.110013 0.000000 0.000000 0.000000 1.502556 -0.572886 0.102615 -0.280746 3.056238 5.722898 -51.672809 -1.406310 -53.202850 0.001157 -85.730793 0.001076 0.000000 0.000000 0.000000 1.502556 -0.572886 0.102615 -1.121293 -11.910755 10.267823 -58.301026 66.100529 74.036102 -0.000228 83.610825 0.000192 0.000000 0.000000 0.000000 
-1.799382 90.969543 3.462343 0.000000 0.000000 0.000000 1.561949 -26.714255 0.695283 -30.756564 24.472040 16.875553 32.600421 7.952187 11.576416 -5.225495 1.792987 -15.687862 0.000000 0.000000 0.000000 1.561949 -26.714255 0.695283 -19.733294 -16.025181 -11.258142 34.924547 -1.239676 -7.661240 -16.783211 -2.992999 13.453579 0.000000 0.000000 0.000000 1.561949 -26.714255 0.695283 0.000000 0.000000 0.000000 4.006687 -1.468102 0.772269 1.495336 -0.584015 0.101201 0.000000 0.000000 0.000000 1.497948 -0.576593 0.104754 -1.014930 1.701781 1.107684 0.000000 0.000000 0.000000 1.497948 -0.576593 0.104754 -0.281260 3.073349 5.677563 -51.670876 -1.468547 -53.178770 0.001397 -85.685338 0.001327 0.000000 0.000000 0.000000 1.497948 -0.576593 0.104754 -1.122339 -11.917096 10.268323 -58.331967 66.132726 74.039879 0.000322 83.601037 -0.000391 0.000000 0.000000 0.000000 
-1.802082 90.965309 3.468721 0.000000 0.000000 0.000000 1.578479 -26.707875 0.706154 -30.792719 24.518798 16.896256 32.618371 7.895588 11.575666 -5.239372 1.793969 -15.673829 0.000000 0.000000 0.000000 1.578479 -26.707875 0.706154 -19.766952 -16.117191 -11.262213 34.936158 -1.174567 -7.727387 -16.795982 -2.996547 13.464243 0.000000 0.000000 0.000000 1.578479 -26.707875 0.706154 0.000000 -0.000001 0.000000 3.995268 -1.476639 0.776742 1.490911 -0.588000 0.103529 0.000000 0.000000 0.000000 1.493539 -0.580607 0.107103 -1.011584 1.702855 1.105707 0.000000 0.000000 0.000000 1.493539 -0.580607 0.107103 -0.281205 3.086699 5.633042 -51.676378 -1.528064 -53.150712 0.000418 -85.637533 0.000421 0.000000 0.000000 0.000000 1.493539 -0.580607 0.107103 -1.123203 -11.919764 10.264622 -58.356194 66.157014 74.043103 -0.000140 83.594214 0.000153 0.000000 0.000000 0.000000 
-1.804943 90.961243 3.474552 0.000000 0.000000 0.000000 1.593066 -26.704530 0.715518 -30.832423 24.578794 16.924615 32.638660 7.827165 11.575031 -5.255131 1.796407 -15.656832 0.000000 0.000000 0.000000 1.593066 -26.704530 0.715518 -19.799562 -16.208222 -11.264888 34.947773 -1.110532 -7.793062 -16.807630 -3.000087 13.474134 0.000000 0.000000 0.000000 1.593066 -26.704530 0.715518 0.000000 0.000000 0.000000 3.984256 -1.486292 0.781918 1.486643 -0.592423 0.106145 0.000000 0.000000 0.000000 1.489284 -0.585014 0.109742 -1.006879 1.704122 1.103834 0.000000 0.000000 0.000000 1.489284 -0.585014 0.109742 -0.280620 3.096290 5.589871 -51.690592 -1.583851 -53.118856 -0.000475 -85.585453 -0.000491 0.000000 0.000000 0.000000 1.489284 -0.585014 0.109742 -1.123879 -11.917860 10.255497 -58.375817 66.174684 74.048062 0.000019 83.587787 -0.000054 0.000000 0.000000 0.000000 
-1.807844 90.957619 3.479548 0.000000 0.000000 0.000000 1.604551 -26.706700 0.723690 -30.872489 24.651874 16.959590 32.659738 7.750246 11.574557 -5.272655 1.799072 -15.637974 0.000000 0.000000 0.000000 1.604551 -26.706700 0.723690 -19.831359 -16.294361 -11.267130 34.960310 -1.046947 -7.856434 -16.817720 -3.003290 13.482262 0.000000 0.000000 0.000000 1.604551 -26.706700 0.723690 0.000000 0.000001 0.000000 3.973509 -1.497333 0.788137 1.482463 -0.597396 0.109134 0.000000 0.000000 0.000000 1.485122 -0.590013 0.112761 -1.000734 1.705754 1.101854 0.000000 0.000000 0.000000 1.485122 -0.590013 0.112761 -0.279579 3.102398 5.548338 -51.714753 -1.635175 -53.083759 0.000494 -85.527485 0.000518 0.000000 0.000000 0.000000 1.485122 -0.590013 0.112761 -1.124397 -11.910446 10.239359 -58.393227 66.186910 74.056913 -0.000465 83.579959 0.000496 0.000000 0.000000 0.000000 
-1.810822 90.954544 3.483738 0.000000 0.000000 0.000000 1.612123 -26.715235 0.731186 -30.908467 24.734591 16.998019 32.678914 7.670273 11.574054 -5.290765 1.801848 -15.618785 0.000000 0.000000 0.000000 1.612123 -26.715235 0.731186 -19.862468 -16.373939 -11.270247 34.974687 -0.982744 -7.916823 -16.826490 -3.006097 13.488298 0.000000 0.000000 0.000000 1.612123 -26.715235 0.731186 0.000000 -0.000001 0.000000 3.962776 -1.509834 0.795670 1.478282 -0.603038 0.112584 0.000000 0.000000 0.000000 1.480963 -0.595712 0.116257 -0.993133 1.707946 1.099494 0.000000 0.000000 0.000000 1.480963 -0.595712 0.116257 -0.278180 3.105554 5.508492 -51.749584 -1.681450 -53.045995 0.000076 -85.462271 0.000076 0.000000 0.000000 0.000000 1.480963 -0.595712 0.116257 -1.124840 -11.896560 10.214326 -58.411846 66.194744 74.072828 -0.000126 83.568334 0.000130 0.000000 0.000000 0.000000 
-1.813822 90.952087 3.487461 0.000000 0.000000 0.000000 1.615937 -26.729273 0.739218 -30.935556 24.820552 17.034353 32.693086 7.594102 11.573417 -5.307949 1.804836 -15.600951 0.000000 0.000000 0.000000 1.615937 -26.729273 0.739218 -19.894140 -16.449225 -11.275954 34.992176 -0.915824 -7.975889 -16.835038 -3.008500 13.492696 0.000000 0.000000 0.000000 1.615937 -26.729273 0.739218 0.000000 0.000000 0.000000 3.951828 -1.524020 0.804834 1.474013 -0.609495 0.116589 0.000000 0.000000 0.000000 1.476715 -0.602183 0.120309 -0.984190 1.710841 1.096564 0.000000 0.000000 0.000000 1.476715 -0.602183 0.120309 -0.276523 3.106465 5.470200 -51.795411 -1.722167 -53.006270 -0.000074 -85.389256 -0.000075 0.000000 0.000000 0.000000 1.476715 -0.602183 0.120309 -1.125284 -11.875363 10.178455 -58.435000 66.198788 74.098769 0.000213 83.551197 -0.000201 0.000000 0.000000 0.000000 
-1.816827 90.949791 3.491114 0.000000 0.000000 0.000000 1.619206 -26.746775 0.748158 -30.955524 24.899009 17.065952 32.703786 7.530077 11.571841 -5.323948 1.807432 -15.586488 0.000000 0.000000 0.000000 1.619206 -26.746775 0.748158 -19.928300 -16.525460 -11.283132 35.011167 -0.843751 -8.036684 -16.843245 -3.010580 13.496275 0.000000 0.000000 0.000000 1.619206 -26.746775 0.748158 0.000000 0.000001 0.000000 3.940439 -1.539929 0.815742 1.469574 -0.616833 0.121217 0.000000 0.000000 0.000000 1.472288 -0.609534 0.124994 -0.974049 1.714511 1.092792 0.000000 0.000000 0.000000 1.472288 -0.609534 0.124994 -0.274758 3.106065 5.433143 -51.851764 -1.757038 -52.965300 0.000210 -85.308311 0.000155 0.000000 0.000000 0.000000 1.472288 -0.609534 0.124994 -1.125856 -11.846162 10.129924 -58.466037 66.199156 74.137879 -0.000202 83.527128 0.000204 0.000000 0.000000 0.000000 
-1.820043 90.947563 3.495071 0.000000 0.000000 0.000000 1.621930 -26.765765 0.757697 -30.965414 24.960709 17.088662 32.710551 7.486190 11.569581 -5.338129 1.809364 -15.577956 0.000000 0.000000 0.000000 1.621930 -26.765765 0.757697 -19.964500 -16.608107 -11.291318 35.031381 -0.764648 -8.102558 -16.852006 -3.012643 13.499965 0.000000 0.000000 0.000000 1.621930 -26.765765 0.757697 0.000000 0.000000 0.000000 3.928405 -1.557757 0.828557 1.464884 -0.625067 0.126532 0.000000 0.000000 0.000000 1.467622 -0.617811 0.130380 -0.962975 1.719039 1.088023 0.000000 0.000000 0.000000 1.467622 -0.617811 0.130380 -0.272999 3.105386 5.396923 -51.917327 -1.785991 -52.923690 0.000246 -85.219963 0.000213 0.000000 0.000000 0.000000 1.467622 -0.617811 0.130380 -1.126623 -11.808641 10.067321 -58.508883 66.195632 74.193941 -0.000069 83.494944 0.000053 0.000000 0.000000 0.000000 
